# xmcd
# 
# Track frame offsets:
#     150
#     16450
#     33862
#     52967
#     67262
#     101292
#     117897
#     151327
#     183859
#     201972
#     221744
#     240717
#     258947
#     273512
# 
# Disc length: 4116
# 
# Revision: 0
# Processed by: cddbd v1.5.2PL0 Copyright (c) Steve Scherf et al.
# Submitted via: BonkEnc v1.0.8
# 
DISCID=c110120e
DTITLE=Eric Clapton - Story
DYEAR=0
DGENRE=Blues
TTITLE0=Cocaine
TTITLE1=Lay Down Sally
TTITLE2=Crossroads
TTITLE3=After Midnight
TTITLE4=Further On Up The Road (live)
TTITLE5=Wonderful Tonight
TTITLE6=Rambling On My Mind (live)
TTITLE7=Layla
TTITLE8=Next Time You See Her
TTITLE9=Knockin' On Heaven's Door
TTITLE10=Sunshine Of Your Love
TTITLE11=Tulsa Time (live)
TTITLE12=Steady Rollin' Man
TTITLE13=Have You Ever Loved A Woman (live)
EXTD=
EXTT0=
EXTT1=
EXTT2=
EXTT3=
EXTT4=
EXTT5=
EXTT6=
EXTT7=
EXTT8=
EXTT9=
EXTT10=
EXTT11=
EXTT12=
EXTT13=
PLAYORDER=
